<?xml version="1.0" encoding="utf-8"?>
<!-- Generator: Adobe Illustrator 24.3.0, SVG Export Plug-In . SVG Version: 6.00 Build 0)  -->
<svg version="1.1" id="Capa_1" xmlns="http://www.w3.org/2000/svg" xmlns:xlink="http://www.w3.org/1999/xlink" x="0px" y="0px"
	 viewBox="0 0 82.6 82.3" style="enable-background:new 0 0 82.6 82.3;" xml:space="preserve">
<style type="text/css">
	.st0{fill:#77777A;}
	.st1{fill:#FF8300;}
</style>
<g>
	<path class="st0" d="M41.3,0.1c-4.5,0-8.1,3.6-8.1,8.1c0,4.5,3.6,8.1,8.1,8.1c13.7,0,24.9,11.1,24.9,24.9C66.1,54.8,55,66,41.3,66
		c-13.7,0-24.8-11.1-24.8-24.8c0-2.9,0.5-5.6,1.4-8.2c-6.2,0-11.5-3.8-13.7-9.1C1.7,29,0.3,34.9,0.3,41.1c0,22.6,18.4,41,41,41
		s41-18.4,41-41C82.3,18.5,63.9,0.1,41.3,0.1"/>
	<path class="st1" d="M26.7,17.5c0-4.7-3.8-8.5-8.5-8.5c-4.7,0-8.5,3.8-8.5,8.5c0,4.7,3.8,8.5,8.5,8.5C22.9,26,26.7,22.2,26.7,17.5"
		/>
</g>
</svg>
